<?xml version="1.0" encoding="utf-8"?>
<!-- Generator: Adobe Illustrator 17.1.0, SVG Export Plug-In . SVG Version: 6.00 Build 0)  -->
<!DOCTYPE svg PUBLIC "-//W3C//DTD SVG 1.1//EN" "http://www.w3.org/Graphics/SVG/1.1/DTD/svg11.dtd">
<svg version="1.1" id="Layer_1" xmlns="http://www.w3.org/2000/svg" xmlns:xlink="http://www.w3.org/1999/xlink" x="0px" y="0px"
	 viewBox="0 0 400 400" enable-background="new 0 0 400 400" xml:space="preserve">
<g>
	<path fill-rule="evenodd" clip-rule="evenodd" fill="#B22F2A" d="M388.7,53.7c2.1,5.7,1.1,12,0.4,18c2.7,1,6.2,0.4,7.9,3.5
		c2.9,4,2.4,9.1,3,14.2c-0.3,15.3-7,29-16.1,41.1c0.9,1.1,2.6,0.6,3.8,0.9c2.3,0.9,5.1,2.7,5.7,5.3c1,6.3-3.4,11.4-6.8,16.5
		c-3.7,4.6-8.3,8.6-13.1,11.6c0.2,1.8,1.6,3.3,1.1,5.3c-5,14.8-20.9,23-33.1,31c1.6,3.6,0.6,7.9-2.2,10.9
		c-7.7,9.4-18.4,12.7-27.8,18.3c0.9,1.7,2.1,3.5,1.4,5.6c-4.5,10-15.5,13.8-24.3,18c-6.8,2-14.1,3.5-21.1,3.7
		c-0.7,2.3,0.2,4.9-1.8,6.8c-5.6,7.7-15.4,8.6-23.3,10.7c-2.8,0.3-6.2,0.4-8.8,0.9c0.4,5-4.2,8.8-8.1,10.6
		c-4.3,1.9-8.7,3.2-13.1,3.4c-0.3,0.3-1.1-0.1-1.4,0.3c-1.1,0.3-3.9-0.9-4.3,1.4c-9.5,17.9-24.1,32.4-41.1,42.2
		c-9.8,5.6-17.7,8.7-28.7,11.6c-0.4,0.2-1.2,0.3-1.8,0.4c-5.7,1.3-11.9,2.2-17.7,2.8c-0.5-0.1-2.2,0.3-2.8,0.2
		c-2.9,0.5-6.3-0.2-9.5,0.3c-0.1-0.1-0.2-0.2-0.2-0.3c-0.7,0.3-1.4-0.2-2.2,0.1c-0.1-0.1-0.2-0.2-0.3-0.3c-0.7,0-1.5,0.2-2.2-0.1
		c-0.3,0.1-1.3-0.1-1.5,0.1c-1.1-0.7-2.4-0.2-3.4-0.6c-4.4-0.3-8.2-1.2-12.4-2.1c-0.9,0.1-2.2-0.6-3.4-0.8c-2.6-0.6-4.2-1.2-6.9-2
		c-1.6-0.6-3.2-1.3-4.8-1.5c-2.9-1.8-6.5-2.6-9.5-4.2c-2.9-1.4-4.1-2.4-6.9-3.6c-1.6-1.1-3.2-2.3-4.9-3.4
		C11.9,307-6.5,266,2.1,223.5c5.5-29.2,26.5-57.3,53.5-71.5c19.1-10.4,41.2-15.3,64.5-13.7c12.3-20.6,34.7-34.8,57.1-40
		c31.6-7.2,60.7,0.6,93.2-3.3c13.2-1.1,26.7-3.7,39.6-6.7c23.2-6.4,44.9-16.7,63.5-33.5c3.6-2.6,8.2-4.8,12.6-3.3
		C387.1,52.2,388.3,52.6,388.7,53.7L388.7,53.7z"/>
	<path fill-rule="evenodd" clip-rule="evenodd" fill="#FFFDE0" d="M333.9,122.6c-0.4,0.3-0.1,0.8-0.1,1c1,0.5,2.4,0.2,3.6,0
		c20.5-4,38.3-20.3,51.3-36.9c-0.1,3.4-0.2,7.6-1.1,11.3c0,0.7-0.3,1.8-0.5,2.8c-3.5,18.7-17.2,34.4-32,46.6c-0.4,0.7-1.4,1.2-1.5,2
		c0.3,0.6,1,0.4,1.3,0.8c4.8-0.9,10.9-0.7,15.4-0.2c-5.2,7.2-12.8,13.9-20.3,18.1c-3.7,2.5-7.5,5-11.4,7c-0.5,0.5-1,1.1-1.1,1.8
		c0.2,0.2,0.4,0.4,0.6,0.6c2.2,0.1,5-0.2,7.3,0.3c0.3-0.1,1-0.1,1.4-0.2c0.3,0.1,0.9,0.4,1.4,0.3c1.8,0.1,3.2,0.7,4.9,1.2
		c0,0.1,0,0.2,0,0.2c-12.4,13.7-27.9,21.2-44,27c-0.9,0.7-0.1,1.1,0.4,1.8c0.6-0.3,0.7,0.8,1.3,0.5c1,0.2,1.4,1.1,2.4,0.9
		c1.6,0.4,3.2,1.1,4.7,1.9c-2.9,3.4-6.9,5.2-10.4,7.7c-11.3,6-23,9.6-35.6,12.3c-0.3,0.6,0.2,1.3,0.7,1.5c3.1,1,6.2,3.5,8.8,5.4
		c0.5,0.9,2,1.2,1.8,2.3c-0.9,1.2-2.4,0.9-3.5,1.6c-13.5,5.2-29.6,6.4-44.2,6.8c-0.4,0.3-0.3,1.1-0.1,1.5c2.1,3,5.9,4.3,8.4,7.2
		c1.3,0.9,2.7,2.2,3.2,3.8c-10.6,3.6-21.8,3.7-33.9,3.8c-1.4,3.4,3,5.4,2.7,8.8c-5.4,1.9-12.1,2.1-17.9,2.8
		c-8.7,19.4-22.8,37.6-42.5,47.3c-23.2,12.1-55.8,15.1-80.5,5.4c-11.3-3.9-22-10.3-31.4-18.3c0-0.1,0-0.2,0-0.3
		c-20.9-19.3-31.4-44.6-29.9-73.8c2.2-28.5,18.3-55.4,43.7-70.4c15.8-9.4,32.6-15.2,51-15.9c0.2-0.2,0.4-0.3,0.6-0.3
		c-0.1,0.1,0.1,0.2,0.1,0.3c0.1-0.1,0.1-0.1,0.1-0.1c4.5-0.3,8.6-0.2,12.7,0.4c0.1,0.1,0.2,0.1,0.3,0c1.1-0.1,2.8,0.1,3.7,0.4
		c5.6-13.7,17.8-25.9,30.8-33.2c10.1-7.3,23-8.9,35-10.9c5.8-0.8,12.4-1.1,17.8-1.3c18-0.9,40.9,1.2,59.5-0.3
		c36.1-1.8,71.8-8.6,99.2-33.1c2.6-2.3,5.4-4.8,7.9-7.3C370.6,89.6,355,108.9,333.9,122.6L333.9,122.6z"/>
	<path fill-rule="evenodd" clip-rule="evenodd" fill="#B22F2A" d="M367.8,78.4c-9.6,14.7-24.3,25.1-39.3,31.9
		c-22.1,9.2-48.2,9-71.9,9.7c-7.7-0.3-15.7,0-23.4,0.1c-7.9,0.4-15.2,0.9-22.5,1.1c-0.1,0.3-0.5-0.1-0.6,0.2
		c-6.3-0.2-12.1,1.2-17.5,1.8c-4.5,0.8-9.6,1.4-13.8,2.9c-4.5,1-9.8,2.9-14.3,5.3c-9.8,5.2-18.8,15.1-23.5,24.9
		c-0.7-0.1-2.3-0.4-2.7-0.3c0.1-0.4-0.9-0.3-1.3-0.6c-1.1-0.2-2.9-1.2-4.2-1.9c1.9-6,5.6-11.5,10.1-16.6
		c16.3-16.7,37.4-22.5,59.9-23.6c45-4.6,94.3,3.1,135.3-15.5c10.8-4.7,20.1-12.7,29.6-19.9C368,78,367.9,78.1,367.8,78.4L367.8,78.4
		z"/>
	<path fill-rule="evenodd" clip-rule="evenodd" fill="#B22F2A" d="M379.9,104.9c-3.4,7.9-12,13.3-18.9,18.3
		c-23.8,14.8-51.4,20-80.1,19.7c-25.8,0.5-47.5,0.3-72.9,0.7c-9.7,0.2-18.9,3.9-27.2,8.2c-11.1,6.2-20.4,17.1-25.8,28.3
		c-2.7,8.5-4.3,17.5-4.1,27c-1.4,11.6-5,23-14.7,31c-1.1,0.7-2.1,1.7-3.1,2.6c-0.5-0.4-0.4-1.2-0.3-1.6c5-10.4,10.6-20.7,11-32.9
		c1.3-6.3-2-11.9-0.9-17.8c1.3-21.9,20.2-40.8,39.7-48.4c13.1-5.4,27.6-7.7,42.8-6.4c37.7,1.5,77.3,2.5,114.9-5.2
		c14.3-4.7,28.1-11.5,39.1-23.4C379.6,104.9,379.8,104.9,379.9,104.9L379.9,104.9z"/>
	<path fill-rule="evenodd" clip-rule="evenodd" fill="#B22F2A" d="M383,108c-3.4,11.9-15.2,19.9-23.4,28.6
		c-19.5,15.1-42.5,24.5-66.3,26.8c-4,0.6-8.6,1-12.4,1.2c-2.7-0.8-6.9-1.3-8-3.6c-0.7,0.1-1.1-0.1-1.8,0.2c-0.3-0.6-0.9,0.1-1.3-0.3
		c-0.6-0.4-1.4-0.3-1.9-0.7c0.2-2.9,3.3-1,5.4-1.7c0.4-0.5,1.1-0.1,1.5-0.4c1.1-0.5,2.1-1.3,3.2-1.8c3,0.3,5.7-0.5,8.4-1.5
		c-0.1-0.9-1.8-1.3-1.1-2.3c1.1-1.4,3-0.5,4.5-1.3c1.3,0.2,2.3-0.2,3.2-1.1c-0.1-0.5,0.1-1.3,0.4-1.8c0.9-0.9,2.2-0.9,3.6-0.9
		c3.3-0.3,7.9,2.4,10.2-1.3c2.1-0.6,4.7,0.8,5.7-1.6c2.9-0.1,6.1-0.4,9.1-0.6c0.9-1.1,0.6-3.7,3-3.1c4.1-0.9,10.4,1.7,13.4-2.7
		c1.7-0.2,4.3,0.4,5-1.7c0-0.4,0.6-1.1,1.2-1.2c2.4-0.1,5-0.1,6.9-1.5c-0.3-0.8-0.1-2.4,1.2-2.9c6.8-1.9,12.6-6.4,18.3-11
		c4.7-4.2,9.2-8.6,12.2-13.8C383.5,106.5,383.1,107.4,383,108L383,108z"/>
	<path fill-rule="evenodd" clip-rule="evenodd" fill="#B22F2A" d="M277.9,147.7c0.3,0.5,0.5,1,0.8,1.5c-11.8,7-24.7,8.3-38.3,10.2
		c-1-0.3-2.9,0.1-3.6-0.4c-2.3-0.2-4.4-1.4-6.2-2.7c-1.5-0.9-3.9-1.1-4.5-3.2c0-0.3,0.1-0.4,0.2-0.6c1.7-0.3,3.4-0.7,4.5-2
		c2.7,0.2,6,3,8.1,0c2.9-0.2,5.1,2.3,8.2,2.1c0.9,0.1,1.6-0.1,2.3-0.4c0.2-0.8,0.7-1.4,1.4-1.7c2.7-0.1,5.8,2.5,7.4-1
		c2.1,0.6,4.5,1.5,7,1c1.1-1,1.7-2.8,3.6-1.9c0.8,0.3,1.6,0.3,2.4,0c0.6-1.8,3.2-0.9,4.8-1.3C276.6,147.5,277.3,147.6,277.9,147.7
		L277.9,147.7z"/>
	<path fill-rule="evenodd" clip-rule="evenodd" fill="#B22F2A" d="M221.9,155.9c0.5,0.6,1.4,1.5,0.9,2.4c-0.2,0.6-0.7,0.4-1.2,0.7
		c-3,1.5-6.8,2.8-10.1,3.8c-9.7,3-20.3,4.8-30.7,4.4c-0.1,0.3-0.1-0.2-0.3-0.4c0-0.9-0.1-1.1,0.5-1.6c-0.6-1.8,0.2-3.6,2-3.8
		c1.4-0.5,3-0.5,3.9-1.9c-0.5-0.6-1-1.3-0.7-1.9c2.4-1.7,5.7-1.5,8.6-2.2c2.8-5.3,9.2-2.6,14-3.8c0.2-0.4,0.4-0.6,0.7-0.8
		C214.7,151.1,217.8,153.8,221.9,155.9L221.9,155.9z"/>
	<path fill-rule="evenodd" clip-rule="evenodd" fill="#B22F2A" d="M362.1,154.4c0.2,0.7-0.5,1.3-0.9,1.9
		c-13.9,9.8-28.4,18.1-44.3,23.1c-12,4-25,5.3-37.5,6.3c-0.2-0.1-0.3,0.2-0.4,0.2c-2.3-0.1-4.7,0.1-7,0.2c-0.3-0.7-1-2.3-1.9-2.6
		c-0.5,0-1.1,0.1-1.3-0.5c-0.2-0.6,0.3-1.5-0.4-1.9c-2.5-0.5-5.3-0.5-7.8-1c0-0.3-0.6-0.7,0-1c3.8-1.3,8.1-1.1,12-2.2
		c1-0.8,0.6-2.2,1.6-2.9c5.4-1.5,10.6-0.8,16.1-2.1c0.3-0.9-0.5-1.7,0.3-2.4c2.6,0.2,4.7,1.2,7.4,1c0.6-0.7,0.5-1.8,1.3-2.3
		c1.8,0.4,4.4,0.4,6.4,0c0.2-0.7,0.9-1.1,1.5-1.3c2-0.4,4.5,1.4,5.6-1c-0.8-2,1.8-1.5,2.8-1.9c4.2-0.3,7.6,1.5,11.8,0.9
		c-0.4-1-1.7-1.3-1.3-2.7c3.3-1.1,7.2,0.7,10.9-1c-0.3-0.9-1.6-1.5-1-2.6c2.6-0.5,5.7,0.1,7.9-1.5c3.2,0.5,5.8-2,9.2-1.8
		C355.6,152.8,359,153.3,362.1,154.4L362.1,154.4z"/>
	<path fill-rule="evenodd" clip-rule="evenodd" fill="#B22F2A" d="M145.4,165c-0.3,1.9-1.4,3.7-3,4.8c-0.2-0.1-0.5-0.5-0.7-0.1
		c0-0.1,0-0.1,0-0.2c-2.9-1-4.8-1.6-7.3-2.4c-0.7-0.1-1.7-0.5-2.3-0.6c-1.5-0.3-2.3-0.4-3.8-0.9c-7.3-1.3-15-2.3-23.6-1.6
		c-0.1,0.3-0.4-0.1-0.5,0.2c-2.9,0-4.5,0.4-7.3,0.6c-7.3,1.1-13.7,3.2-19.8,5.6c-16,5.5-31.7,20.4-41.8,35.5
		c-2,3.5-4.6,6.7-4.2,11.1c-0.1,0.5-0.4,1-0.6,1.5c-1.3-2.1-0.1-5.8-2.3-7.6c-0.7,0.5-1.3,1.1-1.8,1.8c0.3-0.3-0.4-0.5-0.4-0.8
		c-0.3-1.5,1-2.8,1.1-4.3c9.3-16,23.8-31,40.4-39c5.2-3,10.7-5.3,16.3-7.2C104.5,155.7,125.9,157.5,145.4,165L145.4,165z"/>
	<path fill-rule="evenodd" clip-rule="evenodd" fill="#B22F2A" d="M270.6,168.9c0.5-0.2,1.1,0.4,1.7,0.6c0.2,0.5,0.4,1.2,0.1,1.8
		c-1.4,1.6-4,1.1-5.9,1.9c-11.5,3.2-23.9,4.6-35.5,4.8c-3.8,0.2-8.2,0.1-12,0.1c-2.2-0.1-4.4-0.4-6.5-0.2c-0.6-1.2-0.7-3.2-2.1-3.4
		c-1.4-0.9-2.3-0.6-2.7-2.6c-0.8-0.6-2-0.9-2.8-0.7c0.3-0.3-0.3-0.2-0.4-0.4c-0.2,0.2-0.4,0-0.4,0c-0.7-0.5-2.5-0.3-1.8-1.8
		c3.5-1,7.6,0.6,10.2-2.3c2.9-1.4,5.4,0.7,7.9-1.4c0.3-0.7-0.2-1.6,0.4-2.3c6.9-2.7,15.3-2.9,23.1-2.6
		C253.6,161.6,262.4,164.8,270.6,168.9L270.6,168.9z"/>
	<path fill-rule="evenodd" clip-rule="evenodd" fill="#B22F2A" d="M198.4,174.7c1.1,0.8,2.2,1.5,3.6,1.5c1.4,0.7,2.7,2.1,3.9,2.4
		c0.1,0.5,0.4,1.2,0.3,1.6c-9.5,3.6-20.4,6.3-30.9,7.5c-0.1,0.1-0.2,0.2-0.3,0.3c-2.6,0.1-6.2,0.4-8.1,0.3c-0.1,0.1-0.2,0.2-0.3,0.3
		c-1.3-0.3-2.8-0.1-4.2-0.2c-0.8-1.8,3.3-2.6,1.3-4.5c1-2.4,3.7-3.8,5.7-5.7c0.4-1.1-2.1-1.2-1-2.6c2-2.2,5.7-1.7,7-4.7
		c4.5-1.2,9.4,0,13.8,0.7c1,0.3,2.2,0.9,3.5,1C194.7,173.2,196.4,173.8,198.4,174.7L198.4,174.7z"/>
	<path fill-rule="evenodd" clip-rule="evenodd" fill="#B22F2A" d="M136.9,187c0.7,2.7,1.1,6,1.4,8.9c-0.3-0.1-0.6,0.1-0.9,0.1
		c-5.2-2.7-10.7-4.9-16.6-5.6c-1.1-0.6-2.2-0.4-3.3-0.6c-8.8-1.3-13.9-1-22.1,1.2c-15.9,4-36.9,19.4-41.4,39.6
		c-5.6,22.7,3.9,45.3,22.9,58c18.4,13.2,46,12.7,64.6,0.5c5.2-3.8,10.2-7.5,13.8-12.8c0.3-0.1,0.5-0.3,0.8-0.4
		c2,0.7,4.1,1.5,6.1,2.3c-0.5,3.6-3.7,5.8-6.1,8.6c-9.2,9.2-21.2,15-32.9,17.6c-7.1,1.2-16.3,2-22.6,0.7c-1,0.5-1.9-0.5-3.1-0.4
		c-4.8-1.1-9.9-2.3-14.5-4.5c-0.1,0.2-0.4-0.4-0.6-0.4c-3.2-1.3-4.3-2.1-6.5-3.3c-13.6-7.8-24.9-21.7-28.7-37
		c-5.7-18.5-0.2-39.2,11.3-53.9c13.9-17.4,35.3-25.8,57.1-24.4C123,181.7,130.2,183.7,136.9,187L136.9,187z"/>
	<path fill-rule="evenodd" clip-rule="evenodd" fill="#B22F2A" d="M259.8,186.8c0.2,0.2-0.2,1-0.4,1.4c-1.1,1.8-3.8,0.5-4.3,2.8
		c-3,0.1-5.9,1.3-8.5,2.8c0.1,0.6-0.5,1.2-0.9,1.5c-1.4,0.7-3.5,0.1-4.7,1.2c-3.2-1.3-5.9,2.1-9.3,2c-1.5,0.2-2,0.2-3.7,0.5
		c-1.8-0.2-3,0.4-4.7,0c-1.3,0.3-2.5-0.1-4.1,0c-2.4-0.2-5.2-0.6-7.9-0.6c-0.3-0.6-1.1,0.1-0.9-0.3c-1.7-0.7-3.8-0.1-5.1-1.5
		c-0.1,0.1-1-0.7-1.4-1c0.1,0.1-0.8-0.6-1-1c-0.4-1.9-2.2-0.7-3.3-1.5c0.3-1.1,0.6-1.8-0.3-2.7c-0.1,0.1-0.2,0.2-0.1,0
		c-1-0.3-2-0.4-2.7-1.1c-0.3-1.2,1-0.9,1.5-1.3c2.7-0.4,4.9-0.9,7.6-1c1.3-0.5,0-2.2,1.1-2.8C224,180.8,243.6,179.4,259.8,186.8
		L259.8,186.8z"/>
	<path fill-rule="evenodd" clip-rule="evenodd" fill="#B22F2A" d="M341.7,183.5c0.2,0.7,1.3,1.2,0.9,2c-8.7,6.8-18.4,11.9-28.6,15.3
		c-5,2.6-10.9,3.2-16.1,4.8c-14.9,3.3-30.2,4.7-45.3,4.7c-2.1-2.8-4.8-4.3-7.5-5.7c-1.4-0.5-3.6-1.6-5.4-2.3c-0.3-0.3-0.1-0.7-0.2-1
		c3.8-2.4,9.1-1.2,13.3-2.6c2.3-4.2,7.8-3.4,11.6-5.1c5.9-1,12.1-0.5,17.7-0.3c1.1-0.6-0.2-2.4,1.1-2.8c4.5-0.3,9.7,0.6,14.6-0.1
		c0.5-0.9,0.1-2,1-2.7c3.4-0.6,6.8,1.4,9.7-0.9c2.4,0.1,4.8,0.2,7.2,0.4c1.3-0.4-0.2-1-0.5-1.3c-0.5-0.4-1.4-0.7-1.3-1.5
		c3.3-0.9,7.5,1.1,10.4-1.4c2.6-1,6,1.5,7.9-1.2C335.4,182.7,338.4,182.6,341.7,183.5L341.7,183.5z"/>
	<path fill-rule="evenodd" clip-rule="evenodd" fill="#B22F2A" d="M187,194.2c1.7,1.3,4,1.1,5.9,2.2c2.1,1,4,2.4,5.9,3.8
		c0.2,0.4,0.4,0.8,0.4,1.3c-1.1,0.3-2.3,1-3.5,1.3c-7.5,2.8-15.5,3.8-23.6,5.5c-5.2,0.7-9.5,0.5-14.1,0.9c-0.1-0.4-0.9-0.4-0.9-0.5
		c0.4-1.4,1.5-3.5,0-4.7c0.1-2,2.2-2.7,3.1-4.4c-0.7-0.5-1.5-1.3-1.2-2.2c1-1.4,3.2-2.1,2.6-4.3c1.3-1.4,3.6-1,5.1-1.4
		C174,191.5,180.6,192,187,194.2L187,194.2z"/>
	<path fill-rule="evenodd" clip-rule="evenodd" fill="#B22F2A" d="M114.5,193.6c0.5,0.5,0.6,1.2,0.7,1.8c0.6,5.8,2.4,11.1,2.4,17
		c-5.7-1.8-15-0.6-18.8,0.8c-0.3-0.2-0.7,0.2-1.1,0.2c-1.3-1.2-0.3-3.4-0.4-4.8c-0.1-4.6,0.2-8.7,0.8-13.3c2-1.6,5.2-1.1,7.7-1.9
		C108.9,193.4,111.4,193.7,114.5,193.6L114.5,193.6z"/>
	<path fill-rule="evenodd" clip-rule="evenodd" fill="#B22F2A" d="M136,200.1c0.5,0.3,0.2,1,0.3,1.5c-5,3.6-9.4,9.2-15,11.5
		c-0.7-1.1-0.6-2.8-1.2-4.1c-0.7-4.9-2.2-10-1.7-15C124.6,194.6,130.6,197,136,200.1L136,200.1z"/>
	<path fill-rule="evenodd" clip-rule="evenodd" fill="#B22F2A" d="M95.1,196.4c-0.3,6-0.5,12.7-0.7,19.1c-1.3-0.7-3.7-2.1-5.3-2.9
		c-0.2,0.2-0.1,0-0.1-0.2c-0.9-0.3-1.5-1.1-2.3-1.1c0.4,0.3-0.3-0.1,0.1-0.2c-1.8-1.4-3.1-1.8-4.8-3.2c-0.3-0.3-1.1-0.6-2.2-1.5
		c-0.1-0.1-1.2-0.6-1.6-1.1c-0.6-1.2,0.5-2,1.3-2.6c4.4-2.6,9.3-5.6,14.6-6.8C94.5,195.9,94.9,195.8,95.1,196.4L95.1,196.4z"/>
	<path fill-rule="evenodd" clip-rule="evenodd" fill="#B22F2A" d="M244.9,209.4c-0.1,0.4-0.4,0.6-0.6,0.9
		c-14.8,7.6-32.1,11.5-48.9,11.1c-1.2-1.4-2.8-1.6-3.9-1.8c-0.1-0.4-1.2-0.6-1.4-0.9c-0.9,0.1-0.4-0.3-1.4-0.4
		c-0.2,0.1-0.8-0.3-1.2-0.5c-0.2-0.4-0.9-0.2-0.5-1.3c0.5-0.7,1.4-1,1.8-1.9c-1.1-1.8-3.7-0.6-4.8-2.4c0-0.3-0.1-0.6,0.1-0.8
		c3.8-0.7,8.7,0.8,11.4-2.3c1.1-0.2,2.8-0.3,3.6-1.4c-0.4-0.4-0.3-1.2-0.1-1.7c0.2-1,1.2-0.5,1.8-0.8c1.5-0.5,2.2-2,3.6-2.7
		C218.4,201.1,232.7,203.5,244.9,209.4L244.9,209.4z"/>
	<path fill-rule="evenodd" clip-rule="evenodd" fill="#B22F2A" d="M138.9,204.1c0.3,6.8-0.6,12.8-2.7,18.9c-0.3,0.4,0.2-0.2-0.3-0.1
		c-0.2,0.1-0.4-0.1-0.5,0.1c0,0.1,0,0.1,0,0.2c-0.3-0.7-1.6-1.4-1.9-1.9c-2.9-2.6-4.9-4.2-8.4-6.4c0.2-0.4,0.1-0.7,0.1-1.2
		c4-3.4,8.6-7,12.8-10.5C138.6,203.1,138.6,203.7,138.9,204.1L138.9,204.1z"/>
	<path fill-rule="evenodd" clip-rule="evenodd" fill="#B22F2A" d="M76.1,206.2c4.4,4.2,9.7,6.1,14.2,10.2c-2.6,3.6-6.5,6.1-8.8,10
		c-1.2,1.9-2.1,3.8-3.2,5.8c-0.9,0.7-1.1-0.9-2.1-1.2c-2.3-2.4-3-2.7-5-4.7c-0.3-0.4-1.7-1.6-2.2-1.8c0.2-0.7-0.8,0-0.6-0.7
		c0-0.2-1.4-1.1-1.3-1.3c-1.4-1-1.3-1.2-2.7-2.3c1.5-5.4,6-9.3,10-13.4C74.7,206.2,75.4,206.2,76.1,206.2L76.1,206.2z"/>
	<path fill-rule="evenodd" clip-rule="evenodd" fill="#B22F2A" d="M176.6,217.8c0.6-0.2,0.7,0.6,1.2,0.5c1.2,0.5,2.3,1.4,3.6,2
		c0.1,0.7-0.6,1.2-1.2,1.4c-6.5,2.6-12.5,4.4-19.8,5.6c-0.7,0.3-1.4,0.2-2.4,0.4c-1.5-0.1-5,0.4-7.3,0c-1.2-2.8,2-4.9,2.2-7.6
		c1.4-3.2,1.8-6.9,3.7-9.8C163.7,211.7,170.4,214.4,176.6,217.8L176.6,217.8z"/>
	<path fill-rule="evenodd" clip-rule="evenodd" fill="#B22F2A" d="M308.1,213.9c0.3,0.1-0.1,0.5,0,0.7c-12.1,6.3-25.4,11-39.3,12.9
		c-12.7,2.6-26.7,0.5-39.2,0.2c-0.9-0.3-1.4-0.3-2.4-0.5c-2.5,0-5.4-1-7.6-1.2c0.3-1.8,2.2-1.5,3.2-2.7c4.6-1,9-2.1,13.4-3.5
		c0.7-1.4,1.9-3,3.6-3.2c2.4,0.5,3.5-2.3,5.6-2.7c4,0.3,7.5,1.1,11.8,0.7c5.4,0.9,10.8,1.3,16.2,2.6c0.8,0,1.5,0.1,2.1-0.5
		c-0.3-0.7-0.6-1.5-0.4-2.2c0.9-1,2.2-0.2,3.3-0.3c3.9,0.9,7.5-1.6,11.2-0.7c0.6-0.2,1.6,0.3,2.3-0.4c0.4-2.2,2.9-0.6,4.4-0.9
		c1.4,0.3,3.2,0.1,4.4-1.2C303.2,211.6,306.3,212.1,308.1,213.9L308.1,213.9z"/>
	<path fill-rule="evenodd" clip-rule="evenodd" fill="#B22F2A" d="M118.2,215.9c0.3,0.4-0.3,0.7-0.4,1.2c-3.1,2.6-6.3,5.5-9.3,8
		c-2.1,1-3.2-2.9-4.7-2.8c-0.4-0.2-1.6-1.1-2.4-1.6c-0.8-0.5-3.2-2.2-4.2-2.8c-0.3-0.6,0.3-1.4,1-1.6
		C104.2,214.2,112.1,212.8,118.2,215.9L118.2,215.9z"/>
	<path fill-rule="evenodd" clip-rule="evenodd" fill="#B22F2A" d="M134.4,226.5c0.1,1.4-1.1,2.3-2.2,2.8c-2.8,1-4.4,0.9-7.5,1
		c-2.6-1.1-0.8-4.5-2.1-6.5c-0.2-2.4-0.6-4.2-0.9-6.5c1-0.4,2.1,0.6,3.2,1C128.6,220.2,132.2,223,134.4,226.5L134.4,226.5z"/>
	<path fill-rule="evenodd" clip-rule="evenodd" fill="#B22F2A" d="M94.2,219.1c0.3,4.4-0.4,9-0.2,13.7c-0.4,1-1.2,0.7-1.9,1.2
		c-4.4,0.4-6.3,1.2-10.8,1.9c-0.1-0.5-0.2,0-0.7-0.8c-0.7-2.1,1.2-3.5,1.6-5.4c2.9-4.1,5.7-8.6,10.6-10.6
		C93.3,219.1,93.8,219.1,94.2,219.1L94.2,219.1z"/>
	<path fill-rule="evenodd" clip-rule="evenodd" fill="#B22F2A" d="M119.7,221.2c0.3,1.7,0.5,3.5,0.4,5.3c-1.8,0.1-4-1-6-1.5
		c-0.4-0.3-0.3-1-0.2-1.3C115.8,222.5,117.4,218.3,119.7,221.2L119.7,221.2z"/>
	<path fill-rule="evenodd" clip-rule="evenodd" fill="#B22F2A" d="M102.9,225.5c-1.8,1.5-3.8,2.5-5.7,3.7c-1-2.6-0.2-4.7-0.4-7.7
		c1.5-0.6,2.7,0.8,3.8,1.6C101.5,223.9,102,224.9,102.9,225.5L102.9,225.5z"/>
	<path fill-rule="evenodd" clip-rule="evenodd" fill="#B22F2A" d="M63.2,223.3c4.6,4.5,9.5,7.8,13.8,12.7c0,0.3,0.1,0.6-0.1,0.7
		c-1.4,0.3-3.4,0.5-4.2,0.8c-5.3,0.5-8.9,1.6-14.8,1.6c0.6-5.5,1.6-11.2,4.6-15.9C62.7,223.3,62.9,223.3,63.2,223.3L63.2,223.3z"/>
	<path fill-rule="evenodd" clip-rule="evenodd" fill="#B22F2A" d="M206,228.4c0.7,0.7,2,1,2.2,2.1c0.5,1.7-1.4,1.6-2.2,2.4
		c-7.9,4.3-17.7,6.9-26.7,7.7c-0.1,0.3-0.4,0-0.5,0.3c-0.9,0-1.9-0.2-2.8,0.3c0.1-0.1,0.1-0.1,0.2-0.1c-3.7-0.1-7.6,0.2-11.5-0.4
		c-0.1,0.1-0.5,0.5-0.2,0.2c-3-0.5-7.3-1-10.7-1.9c-0.1,0-0.5,0.2-0.3,0.1c0.3-0.4-0.4-0.1-0.5-0.4c-0.9,0-2.8-1-3.9-1.2
		c-0.6-0.2-1.2-0.7-1.8-0.5c-0.7-0.9-2.2-1.2-2.2-2.7c0.8-1.4,2.1-3.7,4-3.6c2.5,2.9,6.6-0.3,9.4,1.8c2,0.5,3.5-1.5,5.5-0.8
		c1.4,0.2,3.4,1,4.6-0.2c0.6-0.7,0.7-1.7,1.6-2.3c3.5-0.1,7.3,0.3,10.8-0.7c0.3-0.9,0.2-2.1,1.3-2.7c1.8,0.7,3-0.9,4.2-1.5
		C193.3,224.6,199.7,226.4,206,228.4L206,228.4z"/>
	<path fill-rule="evenodd" clip-rule="evenodd" fill="#B22F2A" d="M223.7,230.2c2.2,0.5,4,1.9,6.4,2c1,1.8,3.2,1.3,4.8,1.9
		c3.7-2.1,6.6,3.1,10.1,0.8c2.3-0.5,5.4,3.4,6.6-0.4c3.6-0.4,6.6,4.3,10.1,1.8c2.8,1.6,7.1-1.2,9.3,2.6c0.6,0.4,1.5,0.7,1.5,1.5
		c-0.1,0.3-0.1,0.6-0.3,0.9c-14.7,3.6-30.7,4.4-45.7,2.8c-0.1-0.1-0.2-0.2-0.3-0.3c-3.7-0.3-6.4-1-10.1-1.4c-0.8-0.6-2-0.3-2.8-0.7
		c-1.5-0.4-3.2-0.9-4.5-1.2c-2-0.8-4.7-1.4-6.9-2.4c2.1-1.5,4.3-0.6,6.5-1.8c0.6-0.5,1.1-1.2,1.3-1.9c4.3,0.4,6.6-5.7,11-3.7
		C221.9,231,223,230.8,223.7,230.2L223.7,230.2z"/>
	<path fill-rule="evenodd" clip-rule="evenodd" fill="#B22F2A" d="M130.3,233.7c-0.6,0.5-0.7,1.8-1.8,1.5c-0.6-0.5-1-1.1-1.2-1.8
		c0.1-0.5,0.4-0.8,0.9-0.9C129.2,232.9,132,231.7,130.3,233.7L130.3,233.7z"/>
	<path fill-rule="evenodd" clip-rule="evenodd" fill="#B22F2A" d="M119.3,239.3c1,3,1.1,7.7-1.2,10.1c-2.3,2.8-5.5,4.7-9,4.6
		c-1.6-0.3-3.5-0.9-5.1-1.8c0.2,0.1-0.5-0.3-0.6-0.5c-0.5-0.1-1.8-1.5-2.6-2.6c-1.7-2.3-2.3-6-0.9-8.7c1.5-3.8,4.8-6.7,8.9-7.3
		C113.3,232.6,117.1,235.7,119.3,239.3L119.3,239.3z"/>
	<path fill-rule="evenodd" clip-rule="evenodd" fill="#B22F2A" d="M90,242.4c-1.4,0.2-1.5-0.4-2.9-1c0.1-0.1,0.2-0.2,0.1-0.3
		c-0.6-0.6-1.4-1.4-1.8-1.8c0-0.1-0.8-0.5-0.9-1.1c2-0.9,4.1-1.1,6.3-0.8C90.5,239.1,90.2,240.7,90,242.4L90,242.4z"/>
	<path fill-rule="evenodd" clip-rule="evenodd" fill="#B22F2A" d="M158.2,244.7c0.9-0.5,0.9-2.3,2.3-1.6c0.5,1.4,1.9,1.4,2.9,2
		c2.9,3.3,7.1,5.1,8.9,9.1c1.7,0.5,2.7,2.6,4.6,2.6c0.8-0.6,1-1.9,2.2-1.4c0.3,0.2-0.2,0.4,0.3,0.4c2.3,2,4.8,3.9,7.4,5.3
		c1.3-0.5,0-2,1.2-2.7c3.7,2.2,6.5,6,10.5,7.7c0.9-0.5,1.7-0.7,2.7-0.3c0.8,1.5,2.5,1.4,3.9,1.5c1.4,1.6,3.2,2.9,2.7,5.1
		c-0.7,0.7-1.9,0.3-2.8,0.5c-1-0.6-2.6-0.4-3.3-0.5c-2.6-0.3-5.2-0.9-7.5-1.3c-1.1-0.3-1.6-0.5-2.8-0.5c-0.5-0.5-1.4-0.4-2.1-0.7
		c-1.6-0.4-3.7-1.1-5.4-1.5c-1.2-0.5-2.7-1-3.8-1.3c-2.3-1.2-5-2.2-7.5-3.5c-9.2-4.3-19.5-11.8-26.2-18.3c-0.1,0.1-0.1,0.1-0.2,0.2
		c-1.6-1.9-3.8-3.7-5.5-5.6c-0.2-0.4-0.1-1.1,0.3-1.4C147.2,239.4,151.9,244.1,158.2,244.7L158.2,244.7z"/>
	<path fill-rule="evenodd" clip-rule="evenodd" fill="#B22F2A" d="M80.9,238.9c3.6,2.8,6.3,5.8,9.3,8.9c-2.3,3.4-4.6,7.1-6.9,10.6
		c0.3-0.3-1,0.2-1.3-0.4c-1.1-1.2-1.4-2.8-2.1-4.2c-1.3-4.4-2.4-10.4-0.5-15C79.9,238.9,80.4,238.9,80.9,238.9L80.9,238.9z"/>
	<path fill-rule="evenodd" clip-rule="evenodd" fill="#B22F2A" d="M76.5,240.6c-0.6,5.5,0.1,12.7,3.2,17.8c-0.7,0.7-1.7,0.2-2.7,0.5
		c-4.6,0.2-11.5,0.2-16.6,0c-2.4-4.7-2.7-9.8-2.7-15.1c0.9-2.8,3.7-1.4,5.9-2.1c4.1-0.9,8.3-1.5,12.6-1.9
		C76.2,240,76.2,240.3,76.5,240.6L76.5,240.6z"/>
	<path fill-rule="evenodd" clip-rule="evenodd" fill="#B22F2A" d="M41.3,240.8c-1.2,8.7,1.6,16.5,3.9,24.4
		c2.9,8.2,7.1,16.1,13.6,22.6c20.1,20.9,52.1,26.5,78,15.3c10.4-5.2,21.6-12.1,28.4-22.6c0.3-0.4,0.7-0.6,1.1-0.9
		c4.9,1.5,10.9,3.3,15.9,1.7c-3.4-4.5-7.8-8.3-9.5-13.5c0.2-0.2,0.3-0.3,0.4-0.4c6.7,2,13.1,4.3,19.7,6.3c-0.1,0.4,0.1,0.9-0.1,1.2
		c-12.1,23.8-34.2,44.9-59.4,51.3c-1.6,0.6-3.1,0.7-4.6,1.2c-7.8,1.9-16.2,2.2-24,2.2c-0.7-0.5-1.2-0.2-2-0.3
		c-3.4-0.1-6.2-0.8-9.7-1.3c-3.1-0.3-5.9-1.6-8.4-1.9c-1.4-0.7-3.4-1.1-4.6-1.6c-7.8-3-17.4-7.7-24.4-13.3
		c-21.3-15.7-33.6-38.6-35.1-64.9c1.5,0.1,1.9,2.4,3.4,2.2c0.7-0.6,0.7-1.5,1.5-2.1c1.1,0.2,1,1.7,2.1,1.9c0.6-0.7,1.4-1.7,2.4-1.8
		c2.2,1.3,0.9-2.3,3.1-1.8c0.8,1.3,0.6,3.2,2,4.2c1,0.5,1.9-0.2,2.7-0.6c2.1-2,2.1-5,3.2-7.5C40.9,240.7,41.1,240.8,41.3,240.8
		L41.3,240.8z"/>
	<path fill-rule="evenodd" clip-rule="evenodd" fill="#B22F2A" d="M197,245.3c1.1,0.9,2.2,1.5,3.5,1.9c2.9-2.2,6.5,0.7,9.2,2.4
		c3.2,0.8,6.1,3,9.3,3c0.7-0.5,0.7-1.4,1.5-1.8c2.7-0.5,4.3,4.7,7.1,1.9c2.8,0.8,5.3,2.8,7.4,4.8c0.6,0.4,1.4,1.2,1.3,2.2
		c-1.4,0.8-2.2,0.5-3.6,0.7c-8.3,0.4-17,0.2-24-1c-0.1,0.1-0.3,0.4-0.3,0.1c-0.7-0.3-1.7-0.4-2.3-0.4c-1.8-0.3-4.2-0.9-5.9-1.1
		c-0.7-0.2-2.1-0.6-3.1-0.6c-0.4-0.4-1-0.4-1.5-0.5c-5.4-1.7-9.3-2.8-14.4-5c-1.2-0.6-2.7-1.4-3.7-1.8c-0.3-0.2-1.1-0.4-1.4-0.8
		c-0.4,0.5-0.2-0.3-0.6-0.2c0.2-0.1-0.6-0.2-0.9-0.5c-0.3-0.4-4-1-3.3-3.1c2.8-1.3,6.1,0,8.9-0.6c2.8-3.6,7.2-0.3,10.9-2.8
		C193.6,241.8,194.6,245.5,197,245.3L197,245.3z"/>
	<path fill-rule="evenodd" clip-rule="evenodd" fill="#B22F2A" d="M140.7,248.6c1.8,1.4,1.5,3.7,3,5.2c1.8,0.6,4.5,0.6,4.7,2.9
		c1,1.2,3.8,1.1,3.2,3.2c1.1,1.4,3.7-0.7,4,1.4c1.4,1.6,3.9,2.2,4.3,4.5c0.5,0.8,1.2,1.7,2.1,2.3c1.1,0.4,1.8-0.7,2.8-0.2
		c1.4,1,2.2,3.5,4.4,2.7c1.4,2,3.3,3.8,4.1,6.1c-0.3,0.4-0.8,0.6-1.2,0.9c-15.8-3.5-27.4-11.2-39.1-22.2c-1.3-1.6-2.7-1.8-2.7-4.2
		c-0.2-1.9-0.2-3.9,0.5-5.6c1.6-1.2,2.8-3.3,5.1-2.8C138.1,244.3,137.8,247.8,140.7,248.6L140.7,248.6z"/>
	<path fill-rule="evenodd" clip-rule="evenodd" fill="#B22F2A" d="M95.4,258c-2.9,0.1-5.3,1.2-8.8,0.6c-0.5-0.7,0.4-1.4,0.6-2.2
		c1.4-1.7,2.3-3.4,4.1-4.8C92.2,253.6,94.4,255.8,95.4,258L95.4,258z"/>
	<path fill-rule="evenodd" clip-rule="evenodd" fill="#B22F2A" d="M125,257.8c0.8,2.8,0.1,5.8,0.1,8.7c0.2,0.7-0.7,0-1.2,0.1
		c-2.2-1.4-4.5-2.5-6.6-4.2c0-0.2,0-0.3,0-0.4c2.3-1.2,4.7-2.6,6.6-4.3C124.3,257.8,124.6,257.8,125,257.8L125,257.8z"/>
	<path fill-rule="evenodd" clip-rule="evenodd" fill="#B22F2A" d="M133.8,261.4c-1.3,2.2-2.7,4.8-5.5,5.3c-0.3-2.4,0-5.1-0.3-7.5
		c0.2-0.3,0.2-0.8,0.6-0.9C130.4,259.2,132.1,260.4,133.8,261.4L133.8,261.4z"/>
	<path fill-rule="evenodd" clip-rule="evenodd" fill="#B22F2A" d="M98,261.5c-0.3,0.4,0.5,0.3,0.5,0.7c0.5,2.9,1,5.8,1.5,8.7
		c-1.9,1.1-3.4-1-5.3-1.2c0.2-0.1-0.7-0.3-1-0.5c-0.5-0.6-1.9-0.8-2.6-1.5c-2.8-1.6-4.2-3.2-6.1-5.9c-0.5-1.1,1-0.6,1.9-0.7
		c3.3-0.4,7-0.8,10.2-0.6C97.5,260.8,97.8,261.2,98,261.5L98,261.5z"/>
	<path fill-rule="evenodd" clip-rule="evenodd" fill="#B22F2A" d="M80.8,261.9c-3.4,4.7-5.6,10.4-10.3,14.2c0.3-0.2-0.1-0.3-0.1-0.4
		c-0.6-0.3-2-1.4-2.7-2.4c-1.9-3.5-6-7.5-6.4-11.9c6.4-0.5,12.3,0.4,18.4-0.3C80,261.3,81.6,260.8,80.8,261.9L80.8,261.9z"/>
	<path fill-rule="evenodd" clip-rule="evenodd" fill="#B22F2A" d="M108,263.4c0.2,2.4-2.8,3.5-3.6,5.7c-0.4,0.3-0.7,1-1.1,0.9
		c-0.1-0.1-0.2-0.2-0.3-0.2c0.2,0.2-0.6-0.4-0.5-0.7c0.6-2.3-1.3-4.7-0.4-6.9c0.2,0,0.3-0.2,0.5-0.4
		C104.3,262.7,106.3,262.8,108,263.4L108,263.4z"/>
	<path fill-rule="evenodd" clip-rule="evenodd" fill="#B22F2A" d="M151.4,273c-0.2,2.5-2.6,4.3-4.6,5.6c-2-0.1-2.1-0.9-3.7-1.3
		c-4-2.7-8.7-4.8-13-7.6c0-0.3-0.1-0.5,0.1-0.7c1.8-1.7,3.9-3.8,5.5-5.5C141,266.6,145.9,270.7,151.4,273L151.4,273z"/>
	<path fill-rule="evenodd" clip-rule="evenodd" fill="#B22F2A" d="M122.7,269.3c0.2,0.7-0.2,1.6-1,1.8c-1.3,0.7-2.5,0.4-3.9,1
		c-0.9,0.4-2.8,0.8-3.5,0.8c-2.4,0.5-5.9,0.6-7.7,0.2c-0.7-0.2-1.8-0.5-1.1-1.5c2.4-2.9,4.9-5,7.6-7.8
		C116.5,265.1,119.5,267.5,122.7,269.3L122.7,269.3z"/>
	<path fill-rule="evenodd" clip-rule="evenodd" fill="#B22F2A" d="M85.5,267.3c3.8,3.4,7.3,5.6,11.9,7c0.3,0.8-0.3,1.5-0.9,2.2
		c-3.6,4-7.1,8.1-10.2,11.8c-2.7,0.1-7-2.9-8.8-4.5c-0.9-1.8-4.9-3-4.5-5.9c3.2-4.5,6.2-9.2,9.3-13.8
		C84,264.5,84.2,266.3,85.5,267.3L85.5,267.3z"/>
	<path fill-rule="evenodd" clip-rule="evenodd" fill="#B22F2A" d="M143.4,281.6c-3.9,4.5-9.5,6.5-14.7,8.9c-0.5,0.1-0.8-0.2-1.1-0.4
		c-0.2-0.6-0.3-1.2-0.4-1.8c0.4-5.2,0.3-10.5,0.6-15.7c0.2,0.1,0.3-0.2,0.4-0.3C133.2,275.5,138.5,278,143.4,281.6L143.4,281.6z"/>
	<path fill-rule="evenodd" clip-rule="evenodd" fill="#B22F2A" d="M125.2,273.8c-0.2,5.8,0,11.8-0.6,17.4
		c-4.6,2.8-10.8,2.6-16.1,2.7c-0.5-0.3-1.1-0.6-1.4-1.1c-0.6-5.4-1.9-10.5-2.8-15.8c0.2-0.3,0.2-0.6,0.3-0.9
		c6.9,1.2,13.5-0.8,19.4-3.2C124.4,273.2,125.1,273.2,125.2,273.8L125.2,273.8z"/>
	<path fill-rule="evenodd" clip-rule="evenodd" fill="#B22F2A" d="M101.6,276.9c0.7,5.7,2,11.2,2.8,16.9c-4.7,0.3-10.3-1.7-14.8-3.5
		c-0.4-1.5,1.4-2.4,1.9-3.7c2.9-3.3,6.5-6.7,9.2-10.2C101.2,276.2,101.4,276.7,101.6,276.9L101.6,276.9z"/>
</g>
</svg>
